<svg width="18" height="18" viewBox="0 0 18 18" fill="none" xmlns="http://www.w3.org/2000/svg">
<g id="GlobeSimple">
<path id="Vector" d="M9 1.40625C7.4981 1.40625 6.02993 1.85162 4.78114 2.68603C3.53236 3.52044 2.55905 4.70642 1.98429 6.094C1.40954 7.48157 1.25916 9.00842 1.55217 10.4815C1.84517 11.9545 2.56841 13.3076 3.63041 14.3696C4.69242 15.4316 6.04549 16.1548 7.51854 16.4478C8.99158 16.7408 10.5184 16.5905 11.906 16.0157C13.2936 15.441 14.4796 14.4676 15.314 13.2189C16.1484 11.9701 16.5938 10.5019 16.5938 9C16.5915 6.9867 15.7907 5.0565 14.3671 3.63287C12.9435 2.20925 11.0133 1.40848 9 1.40625ZM14.8451 8.15625H12.6253C12.5166 6.53523 12.048 4.95882 11.2535 3.54164C12.2003 3.93427 13.029 4.56591 13.6585 5.37477C14.2881 6.18363 14.6969 7.14204 14.8451 8.15625ZM7.06711 9.84375H10.9343C10.7761 11.7204 10.0906 13.462 9.00141 14.7551C7.90735 13.462 7.22532 11.7204 7.06711 9.84375ZM7.06711 8.15625C7.22532 6.27961 7.90735 4.53797 9 3.24492C10.0927 4.53797 10.7747 6.27961 10.9329 8.15625H7.06711ZM6.75 3.54164C5.95434 4.95853 5.48451 6.53496 5.37469 8.15625H3.15493C3.30341 7.14166 3.71278 6.183 4.34296 5.3741C4.97314 4.56521 5.80255 3.93379 6.75 3.54164ZM3.15493 9.84375H5.37469C5.48451 11.465 5.95434 13.0415 6.75 14.4584C5.80255 14.0662 4.97314 13.4348 4.34296 12.6259C3.71278 11.817 3.30341 10.8583 3.15493 9.84375ZM11.2535 14.4584C12.048 13.0412 12.5166 11.4648 12.6253 9.84375H14.8451C14.6969 10.858 14.2881 11.8164 13.6585 12.6252C13.029 13.4341 12.2003 14.0657 11.2535 14.4584Z" fill="#6D62D4"/>
</g>
</svg>
