<svg width="16" height="16" viewBox="0 0 16 16" fill="none" xmlns="http://www.w3.org/2000/svg">
<path d="M8 0.40625C6.4981 0.40625 5.02993 0.851616 3.78114 1.68603C2.53236 2.52044 1.55905 3.70642 0.984293 5.094C0.40954 6.48157 0.259159 8.00842 0.552165 9.48147C0.845172 10.9545 1.56841 12.3076 2.63041 13.3696C3.69242 14.4316 5.04549 15.1548 6.51854 15.4478C7.99158 15.7408 9.51843 15.5905 10.906 15.0157C12.2936 14.441 13.4796 13.4676 14.314 12.2189C15.1484 10.9701 15.5938 9.5019 15.5938 8C15.5915 5.9867 14.7907 4.0565 13.3671 2.63287C11.9435 1.20925 10.0133 0.408483 8 0.40625ZM8 13.9062C6.83186 13.9062 5.68994 13.5599 4.71867 12.9109C3.74739 12.2619 2.99037 11.3394 2.54334 10.2602C2.09631 9.181 1.97935 7.99345 2.20724 6.84775C2.43513 5.70205 2.99765 4.64965 3.82365 3.82365C4.64966 2.99765 5.70205 2.43513 6.84775 2.20724C7.99345 1.97934 9.181 2.09631 10.2602 2.54334C11.3395 2.99037 12.2619 3.74739 12.9109 4.71866C13.5599 5.68994 13.9063 6.83185 13.9063 8C13.9046 9.56592 13.2818 11.0672 12.1745 12.1745C11.0672 13.2818 9.56592 13.9046 8 13.9062ZM7.15625 8.28125V4.625C7.15625 4.40122 7.24515 4.18661 7.40338 4.02838C7.56162 3.87014 7.77623 3.78125 8 3.78125C8.22378 3.78125 8.43839 3.87014 8.59662 4.02838C8.75486 4.18661 8.84375 4.40122 8.84375 4.625V8.28125C8.84375 8.50503 8.75486 8.71964 8.59662 8.87787C8.43839 9.03611 8.22378 9.125 8 9.125C7.77623 9.125 7.56162 9.03611 7.40338 8.87787C7.24515 8.71964 7.15625 8.50503 7.15625 8.28125ZM9.125 11.0938C9.125 11.3163 9.05902 11.5338 8.93541 11.7188C8.81179 11.9038 8.63609 12.048 8.43052 12.1331C8.22496 12.2183 7.99876 12.2405 7.78053 12.1971C7.5623 12.1537 7.36184 12.0466 7.20451 11.8892C7.04717 11.7319 6.94003 11.5315 6.89662 11.3132C6.85321 11.095 6.87549 10.8688 6.96064 10.6632C7.04579 10.4577 7.18998 10.282 7.37499 10.1583C7.55999 10.0347 7.7775 9.96875 8 9.96875C8.29837 9.96875 8.58452 10.0873 8.7955 10.2983C9.00648 10.5092 9.125 10.7954 9.125 11.0938Z" fill="#D95C4A"/>
</svg>
