<svg width="14" height="15" viewBox="0 0 14 15" fill="none" xmlns="http://www.w3.org/2000/svg">
<path id="Vector" d="M5.75 4.75C5.75 4.55222 5.80865 4.35888 5.91853 4.19443C6.02841 4.02998 6.18459 3.90181 6.36732 3.82612C6.55005 3.75043 6.75111 3.73063 6.94509 3.76921C7.13907 3.8078 7.31726 3.90304 7.45711 4.04289C7.59696 4.18275 7.6922 4.36093 7.73079 4.55491C7.76937 4.74889 7.74957 4.94996 7.67388 5.13268C7.5982 5.31541 7.47002 5.47159 7.30557 5.58147C7.14112 5.69135 6.94778 5.75 6.75 5.75C6.48479 5.75 6.23043 5.64464 6.0429 5.45711C5.85536 5.26957 5.75 5.01522 5.75 4.75ZM13.75 7.5C13.75 8.83502 13.3541 10.1401 12.6124 11.2501C11.8707 12.3601 10.8165 13.2253 9.58312 13.7362C8.34971 14.2471 6.99252 14.3808 5.68314 14.1203C4.37377 13.8598 3.17104 13.217 2.22703 12.273C1.28303 11.329 0.640153 10.1262 0.379702 8.81686C0.119252 7.50749 0.252925 6.15029 0.763816 4.91689C1.27471 3.68349 2.13987 2.62928 3.2499 1.88758C4.35994 1.14588 5.66498 0.75 7 0.75C8.78961 0.751985 10.5053 1.46378 11.7708 2.72922C13.0362 3.99466 13.748 5.7104 13.75 7.5ZM12.25 7.5C12.25 6.46165 11.9421 5.44661 11.3652 4.58326C10.7883 3.7199 9.9684 3.04699 9.00909 2.64963C8.04978 2.25227 6.99418 2.1483 5.97578 2.35088C4.95738 2.55345 4.02192 3.05346 3.28769 3.78769C2.55347 4.52191 2.05345 5.45738 1.85088 6.47578C1.64831 7.49418 1.75228 8.54978 2.14964 9.50909C2.547 10.4684 3.2199 11.2883 4.08326 11.8652C4.94662 12.4421 5.96165 12.75 7 12.75C8.39193 12.7485 9.72643 12.1949 10.7107 11.2107C11.6949 10.2264 12.2485 8.89193 12.25 7.5ZM7.75 9.7925V7.75C7.75 7.41848 7.61831 7.10054 7.38389 6.86612C7.14947 6.6317 6.83152 6.5 6.5 6.5C6.32288 6.49974 6.15139 6.56217 6.01588 6.67623C5.88038 6.7903 5.78962 6.94864 5.75968 7.12321C5.72974 7.29778 5.76254 7.47731 5.85229 7.63001C5.94203 7.78271 6.08292 7.89872 6.25 7.9575V10C6.25 10.3315 6.3817 10.6495 6.61612 10.8839C6.85054 11.1183 7.16848 11.25 7.5 11.25C7.67712 11.2503 7.84862 11.1878 7.98412 11.0738C8.11962 10.9597 8.21038 10.8014 8.24032 10.6268C8.27027 10.4522 8.23746 10.2727 8.14772 10.12C8.05798 9.96729 7.91709 9.85128 7.75 9.7925Z" fill="#868682"/>
</svg>
