<svg width="18" height="18" viewBox="0 0 18 18" fill="none" xmlns="http://www.w3.org/2000/svg">
<g id="User">
<path id="Vector" d="M16.4798 14.7657C15.5158 13.0737 14.0105 11.7554 12.2062 11.0229C13.1035 10.35 13.7663 9.4118 14.1007 8.34126C14.4351 7.27071 14.4242 6.12209 14.0695 5.05808C13.7148 3.99408 13.0344 3.06864 12.1245 2.41285C11.2147 1.75706 10.1215 1.40417 8.99999 1.40417C7.87843 1.40417 6.7853 1.75706 5.87544 2.41285C4.96558 3.06864 4.28513 3.99408 3.93046 5.05808C3.57579 6.12209 3.56489 7.27071 3.8993 8.34126C4.23372 9.4118 4.89649 10.35 5.79374 11.0229C3.98946 11.7554 2.48416 13.0737 1.52014 14.7657C1.46041 14.8617 1.4206 14.9688 1.40307 15.0805C1.38555 15.1923 1.39067 15.3064 1.41813 15.4161C1.4456 15.5258 1.49484 15.6289 1.56294 15.7192C1.63104 15.8096 1.7166 15.8852 1.81454 15.9418C1.91247 15.9984 2.02079 16.0347 2.13304 16.0486C2.24529 16.0625 2.35919 16.0537 2.46797 16.0227C2.57674 15.9917 2.67817 15.9391 2.76622 15.8681C2.85428 15.7971 2.92716 15.7091 2.98053 15.6094C4.25459 13.4072 6.50459 12.0938 8.99999 12.0938C11.4954 12.0938 13.7454 13.4079 15.0194 15.6094C15.1351 15.7954 15.3186 15.9291 15.5311 15.9823C15.7435 16.0355 15.9684 16.004 16.158 15.8944C16.3477 15.7848 16.4873 15.6058 16.5473 15.3951C16.6074 15.1845 16.5832 14.9588 16.4798 14.7657ZM5.34374 6.75003C5.34374 6.0269 5.55817 5.32 5.95992 4.71873C6.36168 4.11746 6.93271 3.64883 7.6008 3.3721C8.26889 3.09537 9.00404 3.02296 9.71328 3.16404C10.4225 3.30512 11.074 3.65334 11.5853 4.16467C12.0967 4.67601 12.4449 5.32749 12.586 6.03673C12.7271 6.74598 12.6547 7.48113 12.3779 8.14922C12.1012 8.81731 11.6326 9.38834 11.0313 9.79009C10.43 10.1918 9.72312 10.4063 8.99999 10.4063C8.03063 10.4052 7.1013 10.0196 6.41586 9.33416C5.73042 8.64872 5.34485 7.71939 5.34374 6.75003Z" fill="#868682"/>
</g>
</svg>
