<svg width="16" height="17" viewBox="0 0 16 17" fill="none" xmlns="http://www.w3.org/2000/svg">
<g id="SignOut">
<path id="Vector" opacity="0.2" d="M13.5 8.5L11 11V6L13.5 8.5Z" fill="#D95C4A"/>
<path id="Vector_2" d="M7 14C7 14.1326 6.94732 14.2598 6.85355 14.3536C6.75979 14.4473 6.63261 14.5 6.5 14.5H3C2.73478 14.5 2.48043 14.3946 2.29289 14.2071C2.10536 14.0196 2 13.7652 2 13.5V3.5C2 3.23478 2.10536 2.98043 2.29289 2.79289C2.48043 2.60536 2.73478 2.5 3 2.5H6.5C6.63261 2.5 6.75979 2.55268 6.85355 2.64645C6.94732 2.74021 7 2.86739 7 3C7 3.13261 6.94732 3.25979 6.85355 3.35355C6.75979 3.44732 6.63261 3.5 6.5 3.5H3V13.5H6.5C6.63261 13.5 6.75979 13.5527 6.85355 13.6464C6.94732 13.7402 7 13.8674 7 14ZM13.8538 8.85375L11.3538 11.3538C11.2838 11.4238 11.1947 11.4714 11.0977 11.4908C11.0006 11.5101 10.9 11.5002 10.8086 11.4623C10.7172 11.4244 10.6391 11.3603 10.5841 11.278C10.5292 11.1957 10.4999 11.0989 10.5 11V9H6.5C6.36739 9 6.24021 8.94732 6.14645 8.85355C6.05268 8.75979 6 8.63261 6 8.5C6 8.36739 6.05268 8.24021 6.14645 8.14645C6.24021 8.05268 6.36739 8 6.5 8H10.5V6C10.4999 5.90105 10.5292 5.80431 10.5841 5.72201C10.6391 5.63971 10.7172 5.57556 10.8086 5.53769C10.9 5.49981 11.0006 5.48991 11.0977 5.50924C11.1947 5.52856 11.2838 5.57624 11.3538 5.64625L13.8538 8.14625C13.9002 8.19269 13.9371 8.24783 13.9623 8.30853C13.9874 8.36923 14.0004 8.43429 14.0004 8.5C14.0004 8.56571 13.9874 8.63077 13.9623 8.69147C13.9371 8.75217 13.9002 8.80731 13.8538 8.85375ZM12.7913 8.5L11.5 7.20687V9.79313L12.7913 8.5Z" fill="#D95C4A"/>
</g>
</svg>
