<svg width="18" height="18" viewBox="0 0 18 18" fill="none" xmlns="http://www.w3.org/2000/svg">
<g id="Detective">
<path id="Vector" d="M17.1562 7.31244H15.4132L12.3623 3.11057C12.236 2.93705 12.0717 2.79475 11.8818 2.69457C11.692 2.59439 11.4818 2.53898 11.2673 2.5326C11.0527 2.52622 10.8396 2.56904 10.6441 2.65776C10.4487 2.74648 10.2762 2.87877 10.1398 3.04447L9.23836 4.08932C9.23133 4.09705 9.2243 4.10549 9.21797 4.11392C9.19159 4.14627 9.15835 4.17234 9.12065 4.19024C9.08295 4.20815 9.04174 4.21744 9 4.21744C8.95826 4.21744 8.91705 4.20815 8.87935 4.19024C8.84165 4.17234 8.80841 4.14627 8.78203 4.11392C8.7757 4.10549 8.76867 4.09705 8.76164 4.08932L7.86023 3.04447C7.72382 2.87877 7.55129 2.74648 7.35586 2.65776C7.16043 2.56904 6.94728 2.52622 6.73274 2.5326C6.51821 2.53898 6.30798 2.59439 6.11816 2.69457C5.92835 2.79475 5.76398 2.93705 5.63766 3.11057L2.5868 7.31244H0.84375C0.619974 7.31244 0.405362 7.40133 0.247129 7.55957C0.0888948 7.7178 0 7.93241 0 8.15619C0 8.37997 0.0888948 8.59458 0.247129 8.75281C0.405362 8.91104 0.619974 8.99994 0.84375 8.99994H17.1562C17.38 8.99994 17.5946 8.91104 17.7529 8.75281C17.9111 8.59458 18 8.37997 18 8.15619C18 7.93241 17.9111 7.7178 17.7529 7.55957C17.5946 7.40133 17.38 7.31244 17.1562 7.31244ZM6.79359 4.39096L7.47492 5.18127C7.65956 5.40744 7.89219 5.58971 8.15596 5.71488C8.41973 5.84005 8.70804 5.90498 9 5.90498C9.29196 5.90498 9.58027 5.84005 9.84404 5.71488C10.1078 5.58971 10.3404 5.40744 10.5251 5.18127L11.2064 4.39096L13.3277 7.31244H4.67227L6.79359 4.39096ZM12.6562 9.84369C12.0081 9.84448 11.3801 10.0687 10.878 10.4786C10.3759 10.8884 10.0305 11.4588 9.9 12.0937H8.1C7.96619 11.4356 7.60133 10.8472 7.07141 10.4347C6.54149 10.0222 5.88147 9.81298 5.2107 9.84479C4.53993 9.87659 3.90267 10.1473 3.41415 10.6081C2.92563 11.0689 2.6181 11.6892 2.54715 12.357C2.4762 13.0247 2.64652 13.6959 3.02731 14.249C3.4081 14.8021 3.97424 15.2007 4.62335 15.3728C5.27247 15.5448 5.96172 15.4789 6.56648 15.187C7.17124 14.8951 7.6516 14.3964 7.9207 13.7812H10.0793C10.2821 14.246 10.6069 14.6472 11.0191 14.9425C11.4313 15.2379 11.9157 15.4162 12.421 15.4588C12.9263 15.5013 13.4338 15.4065 13.8896 15.1842C14.3454 14.962 14.7326 14.6207 15.0103 14.1963C15.288 13.772 15.4458 13.2806 15.467 12.7739C15.4883 12.2672 15.3721 11.7643 15.1309 11.3182C14.8896 10.8722 14.5323 10.4997 14.0967 10.2401C13.661 9.98052 13.1633 9.84355 12.6562 9.84369ZM5.34375 13.7812C5.12125 13.7812 4.90374 13.7152 4.71873 13.5916C4.53373 13.468 4.38953 13.2923 4.30439 13.0867C4.21924 12.8811 4.19696 12.6549 4.24037 12.4367C4.28377 12.2185 4.39092 12.018 4.54826 11.8607C4.70559 11.7034 4.90604 11.5962 5.12427 11.5528C5.3425 11.5094 5.5687 11.5317 5.77427 11.6168C5.97984 11.702 6.15554 11.8462 6.27915 12.0312C6.40277 12.2162 6.46875 12.4337 6.46875 12.6562C6.46875 12.9546 6.35022 13.2407 6.13924 13.4517C5.92827 13.6627 5.64212 13.7812 5.34375 13.7812ZM12.6562 13.7812C12.4337 13.7812 12.2162 13.7152 12.0312 13.5916C11.8462 13.468 11.702 13.2923 11.6169 13.0867C11.5317 12.8811 11.5095 12.6549 11.5529 12.4367C11.5963 12.2185 11.7034 12.018 11.8608 11.8607C12.0181 11.7034 12.2185 11.5962 12.4368 11.5528C12.655 11.5094 12.8812 11.5317 13.0868 11.6168C13.2923 11.702 13.468 11.8462 13.5917 12.0312C13.7153 12.2162 13.7812 12.4337 13.7812 12.6562C13.7812 12.9546 13.6627 13.2407 13.4517 13.4517C13.2408 13.6627 12.9546 13.7812 12.6562 13.7812Z" fill="#868682"/>
</g>
</svg>
