<svg width="18" height="16" viewBox="0 0 18 16" fill="none" xmlns="http://www.w3.org/2000/svg">
<path d="M16.8933 12.0851L10.7445 1.40677C10.5664 1.10218 10.3116 0.849536 10.0056 0.673962C9.69952 0.498388 9.35284 0.406006 9.00001 0.406006C8.64717 0.406006 8.30049 0.498388 7.99444 0.673962C7.6884 0.849536 7.43365 1.10218 7.25555 1.40677L1.10673 12.0851C0.933913 12.3807 0.842834 12.7169 0.842834 13.0593C0.842834 13.4017 0.933913 13.7379 1.10673 14.0335C1.28285 14.3396 1.53724 14.5933 1.8438 14.7687C2.15036 14.944 2.49804 15.0346 2.85118 15.0312H15.1488C15.5017 15.0344 15.8491 14.9436 16.1554 14.7683C16.4617 14.593 16.7159 14.3394 16.8919 14.0335C17.0649 13.738 17.1562 13.4019 17.1565 13.0595C17.1567 12.7171 17.0659 12.3808 16.8933 12.0851ZM15.4308 13.189C15.4022 13.2378 15.361 13.2779 15.3115 13.3051C15.2619 13.3323 15.206 13.3457 15.1495 13.3437H2.85118C2.79471 13.3457 2.73877 13.3323 2.68926 13.3051C2.63976 13.2779 2.59853 13.2378 2.56993 13.189C2.54567 13.1496 2.53283 13.1042 2.53283 13.0579C2.53283 13.0116 2.54567 12.9662 2.56993 12.9268L8.71876 2.24841C8.7492 2.20154 8.79088 2.16303 8.84 2.13636C8.88912 2.1097 8.94412 2.09573 9.00001 2.09573C9.0559 2.09573 9.1109 2.1097 9.16002 2.13636C9.20913 2.16303 9.25081 2.20154 9.28126 2.24841L15.4294 12.9268C15.4538 12.9661 15.4669 13.0114 15.4672 13.0577C15.4674 13.104 15.4548 13.1495 15.4308 13.189ZM8.15626 8.56247V6.31247C8.15626 6.08869 8.24515 5.87408 8.40339 5.71585C8.56162 5.55762 8.77623 5.46872 9.00001 5.46872C9.22378 5.46872 9.43839 5.55762 9.59663 5.71585C9.75486 5.87408 9.84376 6.08869 9.84376 6.31247V8.56247C9.84376 8.78625 9.75486 9.00086 9.59663 9.15909C9.43839 9.31733 9.22378 9.40622 9.00001 9.40622C8.77623 9.40622 8.56162 9.31733 8.40339 9.15909C8.24515 9.00086 8.15626 8.78625 8.15626 8.56247ZM10.125 11.375C10.125 11.5975 10.059 11.815 9.93541 12C9.81179 12.185 9.63609 12.3292 9.43053 12.4143C9.22496 12.4995 8.99876 12.5218 8.78053 12.4784C8.5623 12.4349 8.36185 12.3278 8.20451 12.1705C8.04718 12.0131 7.94003 11.8127 7.89662 11.5944C7.85322 11.3762 7.87549 11.15 7.96064 10.9445C8.04579 10.7389 8.18999 10.5632 8.37499 10.4396C8.56 10.316 8.7775 10.25 9.00001 10.25C9.29838 10.25 9.58452 10.3685 9.7955 10.5795C10.0065 10.7905 10.125 11.0766 10.125 11.375Z" fill="#EE9D2B"/>
</svg>
